<?xml version="1.0" standalone="no"?>
<!DOCTYPE svg PUBLIC "-//W3C//DTD SVG 20010904//EN"
 "http://www.w3.org/TR/2001/REC-SVG-20010904/DTD/svg10.dtd">
<svg version="1.0" xmlns="http://www.w3.org/2000/svg"
 width="366.000000pt" height="366.000000pt" viewBox="0 0 366.000000 366.000000"
 preserveAspectRatio="xMidYMid meet">
<metadata>
Created by potrace 1.14, written by Peter Selinger 2001-2017
</metadata>
<g transform="translate(0.000000,366.000000) scale(0.100000,-0.100000)"
fill="#000000" stroke="none">
<path d="M1555 3528 c-20 -5 -45 -12 -55 -18 -10 -5 -34 -12 -52 -14 -19 -3
-67 -20 -108 -39 -60 -28 -94 -54 -170 -129 -52 -52 -122 -114 -155 -138 -87
-62 -130 -107 -151 -153 -10 -23 -27 -53 -39 -67 -33 -37 -125 -224 -125 -253
0 -7 -7 -25 -16 -42 -9 -16 -17 -43 -20 -58 -2 -16 -14 -45 -26 -65 -79 -128
-115 -370 -82 -557 8 -44 17 -116 20 -160 4 -44 17 -110 31 -147 13 -37 24
-80 25 -95 1 -29 -9 -116 -17 -143 -2 -8 -6 -26 -9 -40 -3 -14 -7 -36 -10 -50
-3 -14 -9 -45 -12 -70 -3 -25 -6 -47 -7 -50 -1 -3 2 -21 6 -42 6 -30 14 -39
45 -51 20 -8 53 -13 73 -11 33 4 38 2 52 -28 26 -55 56 -169 63 -238 9 -84 9
-708 0 -717 -3 -4 -43 -6 -87 -6 l-81 1 -15 -32 c-8 -17 -23 -47 -33 -66 -11
-19 -19 -38 -20 -43 0 -4 431 -6 958 -5 949 3 957 3 958 23 1 11 5 67 9 125 8
125 11 167 19 240 4 30 8 75 11 100 11 133 19 157 97 318 70 144 81 161 97
153 10 -6 32 -13 50 -16 38 -7 53 9 87 91 26 63 39 193 23 246 -4 16 -4 30 2
33 33 21 55 124 37 176 -6 19 -7 34 0 42 16 21 33 110 36 193 2 43 13 131 24
194 70 381 75 544 22 740 -5 19 -9 37 -10 40 0 3 -18 59 -40 125 -23 66 -43
127 -45 135 -15 68 -56 144 -112 212 -73 88 -115 124 -193 164 -30 15 -71 38
-91 50 -20 13 -65 32 -100 43 -35 12 -73 25 -84 30 -84 39 -266 63 -291 39 -4
-5 -28 -9 -53 -9 -25 -1 -59 -5 -76 -8 -21 -5 -54 1 -110 20 -84 29 -186 40
-250 27z"/>
</g>
</svg>
